#N canvas 101 173 775 492 10;
#X text 7 12 Primeiro Trabalho Maior - Sintetizador/Sequenciador;
#X msg 15 128 onda senoidal;
#X msg 15 158 onda quadrada;
#X msg 13 182 onda dente de serra;
#X msg 18 95 ataque N;
#X msg 14 211 decaimento N;
#X msg 15 247 liga;
#X msg 14 285 desliga;
#X msg 239 46 desliga-dsp;
#X msg 162 46 liga-dsp;
#N canvas 889 197 450 300 sintetizador 1;
#X obj 76 44 inlet;
#X obj 77 83 route liga-dsp desliga-dsp;
#X msg 76 125 \; pd dsp 1;
#X msg 154 125 \; pd dsp 0;
#X connect 0 0 1 0;
#X connect 1 0 2 0;
#X connect 1 1 3 0;
#X restore 239 149 pd sintetizador;
#X connect 8 0 10 0;
#X connect 9 0 10 0;
